<svg xmlns="http://www.w3.org/2000/svg" id="Layer_2" viewBox="0 0 483.76 133.2"><defs><style>      .cls-1 {        fill: #c2b7ed;      }    </style></defs><g id="Layer_2-2" data-name="Layer_2"><g id="Laag_1"><g><path class="cls-1" d="M21.6,29.25h24.75l-1.8,9.15h.3c2.9-3.8,6.15-6.65,9.75-8.55s8.1-2.85,13.5-2.85c4.9,0,9.1.93,12.6,2.77,3.5,1.85,6.38,4.33,8.62,7.43,2.25,3.1,3.9,6.67,4.95,10.73,1.05,4.05,1.57,8.32,1.57,12.82,0,5.7-.85,11.45-2.55,17.25-1.7,5.8-4.23,11.02-7.58,15.68-3.35,4.65-7.53,8.43-12.52,11.32-5,2.9-10.8,4.35-17.4,4.35-5.1,0-9.58-.9-13.43-2.7-3.85-1.8-6.93-5-9.22-9.6h-.3l-7.35,36.15H0L21.6,29.25ZM51,89.85c3.5,0,6.47-.9,8.93-2.7,2.45-1.8,4.45-4.07,6-6.82s2.67-5.75,3.38-9c.7-3.25,1.05-6.32,1.05-9.23,0-1.7-.15-3.47-.45-5.33-.3-1.85-.93-3.52-1.88-5.02s-2.3-2.75-4.05-3.75c-1.75-1-4.08-1.5-6.98-1.5-3.4,0-6.3.93-8.7,2.77-2.4,1.85-4.38,4.2-5.93,7.05s-2.68,5.92-3.38,9.23c-.7,3.3-1.05,6.35-1.05,9.15,0,4.1,1,7.65,3,10.65s5.35,4.5,10.05,4.5h0Z"></path><path class="cls-1" d="M178.55,107.1h-24.75l2.1-9.6h-.3c-2.6,4.2-5.8,7.23-9.6,9.08s-8.15,2.77-13.05,2.77-9.45-.85-13.05-2.55c-3.6-1.7-6.55-4.02-8.85-6.98-2.3-2.95-4-6.45-5.1-10.5s-1.65-8.42-1.65-13.12c0-6.3.9-12.4,2.7-18.3,1.8-5.9,4.43-11.15,7.88-15.75,3.45-4.6,7.75-8.27,12.9-11.02s11.12-4.12,17.92-4.12c5.4,0,9.92,1,13.58,3,3.65,2,6.22,5.2,7.72,9.6h.3L175.4,0h25.5l-22.35,107.1h0ZM142.7,89.85c3.6,0,6.65-.95,9.15-2.85s4.52-4.3,6.08-7.2c1.55-2.9,2.7-6.02,3.45-9.38.75-3.35,1.12-6.53,1.12-9.53,0-4.3-1.12-7.77-3.38-10.42-2.25-2.65-5.47-3.98-9.67-3.98-3.6,0-6.65.9-9.15,2.7s-4.53,4.08-6.08,6.82c-1.55,2.75-2.68,5.8-3.38,9.15-.7,3.35-1.05,6.52-1.05,9.52,0,4.1.98,7.65,2.92,10.65,1.95,3,5.27,4.5,9.98,4.5v.02Z"></path><path class="cls-1" d="M209.65,29.25h24.6l-2.1,10.05h.3c2.9-3.7,6.62-6.68,11.17-8.93s9.38-3.38,14.48-3.38c2.3,0,4.55.23,6.75.68s4.2,1.2,6,2.25,3.3,2.43,4.5,4.12c1.2,1.7,2.05,3.8,2.55,6.3,3.5-4.3,7.25-7.6,11.25-9.9,4-2.3,8.85-3.45,14.55-3.45,3.6,0,6.92.4,9.98,1.2,3.05.8,5.7,2.02,7.95,3.67,2.25,1.65,4,3.8,5.25,6.45s1.88,5.77,1.88,9.38c0,3.1-.22,5.95-.67,8.55s-.93,4.95-1.42,7.05l-9.9,43.8h-25.5l8.7-41.4c.4-1.4.77-3.15,1.12-5.25s.53-4,.53-5.7c0-2.9-.8-5-2.4-6.3s-3.65-1.95-6.15-1.95-4.65.48-6.45,1.43c-1.8.95-3.35,2.28-4.65,3.97-1.3,1.7-2.38,3.73-3.22,6.08-.85,2.35-1.58,4.93-2.17,7.73l-8.7,41.4h-25.5l8.4-40.2c.5-1.9.92-3.97,1.28-6.22.35-2.25.53-4.22.53-5.93,0-2.3-.68-4.25-2.03-5.85s-3.38-2.4-6.08-2.4c-4.7,0-8.28,1.38-10.73,4.12-2.45,2.75-4.23,6.73-5.32,11.93l-9.45,44.55h-25.5l16.2-77.85h-.03Z"></path></g><path class="cls-1" d="M467.3,1.64h-96.14c-9.09,0-16.46,7.37-16.46,16.46v96.14c0,9.09,7.37,16.46,16.46,16.46h96.14c9.09,0,16.46-7.37,16.46-16.46V18.1c0-9.09-7.37-16.46-16.46-16.46ZM429.57,48.68c8.7-4.98,16.73-4.82,16.73-4.82h.51l3.56-4.58v4.58h1.91l3.57-4.58v4.58h0v17.43c0,1.48-1.2,2.68-2.68,2.68h-3.65v-4.08h-30.31c1.82-3.41,5.14-8.24,10.35-11.21h0ZM413.3,52.69c1.3.24,2.36,1.3,2.6,2.59.45,2.34-1.57,4.35-3.9,3.9-1.29-.25-2.34-1.31-2.59-2.6-.44-2.32,1.55-4.32,3.88-3.89h0ZM404.85,47.4c1.3.24,2.36,1.3,2.6,2.6.5,2.65-2.17,4.89-4.86,3.57-.57-.28-1.03-.75-1.31-1.31-1.3-2.69.92-5.35,3.57-4.85h0ZM396.67,43.67c.57.28,1.04.75,1.31,1.32,1.44,3.02-1.53,5.97-4.53,4.52-.57-.27-1.04-.74-1.31-1.31-1.47-3.03,1.52-6.01,4.54-4.53h-.01ZM386.19,40.77c1.29.25,2.34,1.31,2.58,2.61.43,2.33-1.58,4.33-3.91,3.87-1.29-.25-2.34-1.32-2.58-2.61-.43-2.33,1.58-4.33,3.91-3.87ZM470.63,70.02v6.01c0,.85-.69,1.55-1.55,1.55h-24.01c-49.67-1.46-82,26.98-82,26.98,0,0,17.73-33.66,47.5-38.95-3.18-.28-6.08,1.05-8.62.25-2.91-.93-2.24-1.98-5.24-2.57s-5.12.95-7.13.55c-2.09-.42-2.74-1.3-4.08-1.51-2.42-.39-5.56.59-6.02.73l1.06-5.08c.32-1.54,1.75-2.58,3.31-2.43,4.26.41,11.12,1.39,18.5,3.74,12.38,3.94,26.25,14.81,26.25,14.81l-11.1-10.1s.26-.75.82-1.93h29.31v5.88h23.01v2.07h-.01Z"></path></g></g></svg>